<?xml version="1.0" encoding="us-ascii" standalone="no"?><svg xmlns="http://www.w3.org/2000/svg" xmlns:xlink="http://www.w3.org/1999/xlink" contentStyleType="text/css" height="1130px" preserveAspectRatio="none" style="width:1655px;height:1130px;background:#FFFFFF;" version="1.1" viewBox="0 0 1655 1130" width="1655px" zoomAndPan="magnify"><defs/><g><rect fill="#FFFFFF" height="856.9844" style="stroke:#181818;stroke-width:1.0;" width="10" x="205.5" y="248.9609"/><rect fill="#FFFFFF" height="798.7188" style="stroke:#181818;stroke-width:1.0;" width="10" x="445.5" y="278.0938"/><rect fill="#FFFFFF" height="407.7266" style="stroke:#181818;stroke-width:1.0;" width="10" x="664.5" y="357.4922"/><rect fill="#FFFFFF" height="299.1953" style="stroke:#181818;stroke-width:1.0;" width="10" x="938.5" y="436.8906"/><rect fill="#FFFFFF" height="159.9297" style="stroke:#181818;stroke-width:1.0;" width="10" x="938.5" y="887.75"/><rect fill="#FFFFFF" height="198.7969" style="stroke:#181818;stroke-width:1.0;" width="10" x="1217.5" y="508.1563"/><rect fill="#FFFFFF" height="64.2656" style="stroke:#181818;stroke-width:1.0;" width="10" x="1217.5" y="794.3516"/><line style="stroke:#181818;stroke-width:0.5;stroke-dasharray:5.0,5.0;" x1="43" x2="43" y1="81.2969" y2="1123.9453"/><line style="stroke:#181818;stroke-width:0.5;stroke-dasharray:5.0,5.0;" x1="210.5" x2="210.5" y1="81.2969" y2="1123.9453"/><line style="stroke:#181818;stroke-width:0.5;stroke-dasharray:5.0,5.0;" x1="450.5" x2="450.5" y1="81.2969" y2="1123.9453"/><line style="stroke:#181818;stroke-width:0.5;stroke-dasharray:5.0,5.0;" x1="669.5" x2="669.5" y1="81.2969" y2="1123.9453"/><line style="stroke:#181818;stroke-width:0.5;stroke-dasharray:5.0,5.0;" x1="943.5" x2="943.5" y1="81.2969" y2="1123.9453"/><line style="stroke:#181818;stroke-width:0.5;stroke-dasharray:5.0,5.0;" x1="1222.5" x2="1222.5" y1="81.2969" y2="1123.9453"/><text fill="#000000" font-family="sans-serif" font-size="14" lengthAdjust="spacing" textLength="71" x="5" y="77.9951">Developer</text><ellipse cx="43.5" cy="13.5" fill="#E2E2F0" rx="8" ry="8" style="stroke:#181818;stroke-width:0.5;"/><path d="M43.5,21.5 L43.5,48.5 M30.5,29.5 L56.5,29.5 M43.5,48.5 L30.5,63.5 M43.5,48.5 L56.5,63.5 " fill="none" style="stroke:#181818;stroke-width:0.5;"/><rect fill="#E2E2F0" height="46.5938" rx="2.5" ry="2.5" style="stroke:#181818;stroke-width:0.5;" width="146" x="137.5" y="33.7031"/><ellipse cx="155.5" cy="51.7031" fill="#ADD1B2" rx="11" ry="11" style="stroke:#181818;stroke-width:1.0;"/><path d="M155.6094,47.2813 Q154.6719,47.2813 154.2344,48.2813 Q153.8125,49.2813 153.8125,51.5156 Q153.8125,53.75 154.2344,54.75 Q154.6719,55.75 155.6094,55.75 Q156.5625,55.75 156.9844,54.75 Q157.4219,53.75 157.4219,51.5156 Q157.4219,49.2813 156.9844,48.2813 Q156.5625,47.2813 155.6094,47.2813 Z M151.2656,51.5156 Q151.2656,48.3438 152.3594,46.7188 Q153.4688,45.0781 155.6094,45.0781 Q157.7656,45.0781 158.8594,46.7188 Q159.9688,48.3438 159.9688,51.5156 Q159.9688,54.6875 158.8594,56.3125 Q157.7656,57.9375 155.6094,57.9375 Q153.4688,57.9375 152.3594,56.3125 Q151.2656,54.6875 151.2656,51.5156 Z " fill="#000000"/><text fill="#000000" font-family="sans-serif" font-size="14" lengthAdjust="spacing" textLength="88" x="180.5" y="53.6982">CryptoJS.AES</text><text fill="#000000" font-family="sans-serif" font-size="14" lengthAdjust="spacing" textLength="104" x="172.5" y="69.9951">(Helper Object)</text><rect fill="#E2E2F0" height="46.5938" rx="2.5" ry="2.5" style="stroke:#181818;stroke-width:0.5;" width="164" x="368.5" y="33.7031"/><ellipse cx="386.5" cy="51.7031" fill="#ADD1B2" rx="11" ry="11" style="stroke:#181818;stroke-width:1.0;"/><path d="M386.6094,47.2813 Q385.6719,47.2813 385.2344,48.2813 Q384.8125,49.2813 384.8125,51.5156 Q384.8125,53.75 385.2344,54.75 Q385.6719,55.75 386.6094,55.75 Q387.5625,55.75 387.9844,54.75 Q388.4219,53.75 388.4219,51.5156 Q388.4219,49.2813 387.9844,48.2813 Q387.5625,47.2813 386.6094,47.2813 Z M382.2656,51.5156 Q382.2656,48.3438 383.3594,46.7188 Q384.4688,45.0781 386.6094,45.0781 Q388.7656,45.0781 389.8594,46.7188 Q390.9688,48.3438 390.9688,51.5156 Q390.9688,54.6875 389.8594,56.3125 Q388.7656,57.9375 386.6094,57.9375 Q384.4688,57.9375 383.3594,56.3125 Q382.2656,54.6875 382.2656,51.5156 Z " fill="#000000"/><text fill="#000000" font-family="sans-serif" font-size="14" lengthAdjust="spacing" textLength="122" x="403.5" y="53.6982">SerializableCipher</text><text fill="#000000" font-family="sans-serif" font-size="14" lengthAdjust="spacing" textLength="67" x="431" y="69.9951">(Strategy)</text><rect fill="#E2E2F0" height="46.5938" rx="2.5" ry="2.5" style="stroke:#181818;stroke-width:0.5;" width="110" x="614.5" y="33.7031"/><ellipse cx="632.5" cy="51.7031" fill="#FFAAAA" rx="11" ry="11" style="stroke:#181818;stroke-width:1.0;"/><path d="M635.4688,57.3438 Q634.8906,57.6406 634.25,57.7813 Q633.6094,57.9375 632.9063,57.9375 Q630.4063,57.9375 629.0781,56.2969 Q627.7656,54.6406 627.7656,51.5156 Q627.7656,48.3906 629.0781,46.7344 Q630.4063,45.0781 632.9063,45.0781 Q633.6094,45.0781 634.25,45.2344 Q634.9063,45.3906 635.4688,45.6875 L635.4688,48.4063 Q634.8438,47.8281 634.25,47.5625 Q633.6563,47.2813 633.0313,47.2813 Q631.6875,47.2813 631,48.3594 Q630.3125,49.4219 630.3125,51.5156 Q630.3125,53.6094 631,54.6875 Q631.6875,55.75 633.0313,55.75 Q633.6563,55.75 634.25,55.4844 Q634.8438,55.2031 635.4688,54.625 L635.4688,57.3438 Z " fill="#000000"/><text fill="#000000" font-family="sans-serif" font-size="14" lengthAdjust="spacing" textLength="68" x="649.5" y="53.6982">AES Class</text><text fill="#000000" font-family="sans-serif" font-size="14" lengthAdjust="spacing" textLength="40" x="663.5" y="69.9951">(Algo)</text><rect fill="#E2E2F0" height="46.5938" rx="2.5" ry="2.5" style="stroke:#181818;stroke-width:0.5;" width="98" x="894.5" y="33.7031"/><ellipse cx="912.5" cy="51.7031" fill="#1976D2" rx="11" ry="11" style="stroke:#181818;stroke-width:1.0;"/><path d="M915.4688,57.3438 Q914.8906,57.6406 914.25,57.7813 Q913.6094,57.9375 912.9063,57.9375 Q910.4063,57.9375 909.0781,56.2969 Q907.7656,54.6406 907.7656,51.5156 Q907.7656,48.3906 909.0781,46.7344 Q910.4063,45.0781 912.9063,45.0781 Q913.6094,45.0781 914.25,45.2344 Q914.9063,45.3906 915.4688,45.6875 L915.4688,48.4063 Q914.8438,47.8281 914.25,47.5625 Q913.6563,47.2813 913.0313,47.2813 Q911.6875,47.2813 911,48.3594 Q910.3125,49.4219 910.3125,51.5156 Q910.3125,53.6094 911,54.6875 Q911.6875,55.75 913.0313,55.75 Q913.6563,55.75 914.25,55.4844 Q914.8438,55.2031 915.4688,54.625 L915.4688,57.3438 Z " fill="#000000"/><text fill="#000000" font-family="sans-serif" font-size="14" lengthAdjust="spacing" textLength="35" x="940" y="53.6982">Base</text><text fill="#000000" font-family="sans-serif" font-size="14" lengthAdjust="spacing" textLength="56" x="929.5" y="69.9951">(core.js)</text><rect fill="#E2E2F0" height="46.5938" rx="2.5" ry="2.5" style="stroke:#181818;stroke-width:0.5;" width="142" x="1151.5" y="33.7031"/><ellipse cx="1169.5" cy="51.7031" fill="#81D4FA" rx="11" ry="11" style="stroke:#181818;stroke-width:1.0;"/><path d="M1165.4219,47.4688 L1165.4219,45.3125 L1172.8125,45.3125 L1172.8125,47.4688 L1170.3438,47.4688 L1170.3438,55.5469 L1172.8125,55.5469 L1172.8125,57.7031 L1165.4219,57.7031 L1165.4219,55.5469 L1167.8906,55.5469 L1167.8906,47.4688 L1165.4219,47.4688 Z " fill="#000000"/><text fill="#000000" font-family="sans-serif" font-size="14" lengthAdjust="spacing" textLength="59" x="1207" y="53.6982">instance</text><text fill="#000000" font-family="sans-serif" font-size="14" lengthAdjust="spacing" textLength="100" x="1186.5" y="69.9951">(AES Instance)</text><rect fill="#FFFFFF" height="856.9844" style="stroke:#181818;stroke-width:1.0;" width="10" x="205.5" y="248.9609"/><rect fill="#FFFFFF" height="798.7188" style="stroke:#181818;stroke-width:1.0;" width="10" x="445.5" y="278.0938"/><rect fill="#FFFFFF" height="407.7266" style="stroke:#181818;stroke-width:1.0;" width="10" x="664.5" y="357.4922"/><rect fill="#FFFFFF" height="299.1953" style="stroke:#181818;stroke-width:1.0;" width="10" x="938.5" y="436.8906"/><rect fill="#FFFFFF" height="159.9297" style="stroke:#181818;stroke-width:1.0;" width="10" x="938.5" y="887.75"/><rect fill="#FFFFFF" height="198.7969" style="stroke:#181818;stroke-width:1.0;" width="10" x="1217.5" y="508.1563"/><rect fill="#FFFFFF" height="64.2656" style="stroke:#181818;stroke-width:1.0;" width="10" x="1217.5" y="794.3516"/><rect fill="#EEEEEE" height="3" style="stroke:#EEEEEE;stroke-width:1.0;" width="1648.5" x="0" y="111.8633"/><line style="stroke:#000000;stroke-width:1.0;" x1="0" x2="1648.5" y1="111.8633" y2="111.8633"/><line style="stroke:#000000;stroke-width:1.0;" x1="0" x2="1648.5" y1="114.8633" y2="114.8633"/><rect fill="#EEEEEE" height="23.1328" style="stroke:#000000;stroke-width:2.0;" width="148" x="750.25" y="101.2969"/><text fill="#000000" font-family="sans-serif" font-size="13" font-weight="bold" lengthAdjust="spacing" textLength="129" x="756.25" y="117.3638">&#21021;&#22987;&#21270;&#38454;&#27573; (&#21152;&#36733;&#26102;)</text><path d="M48,139.4297 L48,179.4297 L373,179.4297 L373,149.4297 L363,139.4297 L48,139.4297 " fill="#FEFFDD" style="stroke:#181818;stroke-width:0.5;"/><path d="M363,139.4297 L363,149.4297 L373,149.4297 L363,139.4297 " fill="#FEFFDD" style="stroke:#181818;stroke-width:0.5;"/><text fill="#000000" font-family="sans-serif" font-size="13" lengthAdjust="spacing" textLength="304" x="54" y="156.4966">&#23427;&#26159;&#36890;&#36807; BlockCipher._createHelper(AES) &#29983;&#25104;&#30340;</text><text fill="#000000" font-family="sans-serif" font-size="13" lengthAdjust="spacing" textLength="290" x="54" y="171.6294">&#26412;&#36136;&#26159;&#19968;&#20010;&#21253;&#21547; encrypt/decrypt &#26041;&#27861;&#30340;&#38745;&#24577;&#23545;&#35937;</text><rect fill="#EEEEEE" height="3" style="stroke:#EEEEEE;stroke-width:1.0;" width="1648.5" x="0" y="205.2617"/><line style="stroke:#000000;stroke-width:1.0;" x1="0" x2="1648.5" y1="205.2617" y2="205.2617"/><line style="stroke:#000000;stroke-width:1.0;" x1="0" x2="1648.5" y1="208.2617" y2="208.2617"/><rect fill="#EEEEEE" height="23.1328" style="stroke:#000000;stroke-width:2.0;" width="75" x="786.75" y="194.6953"/><text fill="#000000" font-family="sans-serif" font-size="13" font-weight="bold" lengthAdjust="spacing" textLength="56" x="792.75" y="210.7622">&#35843;&#29992;&#38454;&#27573;</text><polygon fill="#181818" points="193.5,244.9609,203.5,248.9609,193.5,252.9609" style="stroke:#181818;stroke-width:1.0;"/><line style="stroke:#181818;stroke-width:1.0;" x1="43.5" x2="199.5" y1="248.9609" y2="248.9609"/><text fill="#000000" font-family="sans-serif" font-size="13" lengthAdjust="spacing" textLength="143" x="53" y="243.895">encrypt(msg, key, cfg)</text><polygon fill="#181818" points="433.5,274.0938,443.5,278.0938,433.5,282.0938" style="stroke:#181818;stroke-width:1.0;"/><line style="stroke:#181818;stroke-width:1.0;" x1="215.5" x2="439.5" y1="278.0938" y2="278.0938"/><text fill="#000000" font-family="sans-serif" font-size="13" lengthAdjust="spacing" textLength="211" x="225" y="273.0278">encrypt(AESClass, msg, key, cfg)</text><path d="M321,291.0938 L321,331.0938 L579,331.0938 L579,301.0938 L569,291.0938 L321,291.0938 " fill="#FEFFDD" style="stroke:#181818;stroke-width:0.5;"/><path d="M569,291.0938 L569,301.0938 L579,301.0938 L569,291.0938 " fill="#FEFFDD" style="stroke:#181818;stroke-width:0.5;"/><text fill="#000000" font-family="sans-serif" font-size="13" lengthAdjust="spacing" textLength="186" x="327" y="308.1606">&#36825;&#37324;&#20250;&#26681;&#25454; key &#30340;&#31867;&#22411;&#36873;&#25321;&#31574;&#30053;</text><text fill="#000000" font-family="sans-serif" font-size="13" lengthAdjust="spacing" textLength="237" x="327" y="323.2935">(OpenSSLKDF &#25110; &#30452;&#25509;&#20351;&#29992; WordArray)</text><polygon fill="#181818" points="652.5,353.4922,662.5,357.4922,652.5,361.4922" style="stroke:#181818;stroke-width:1.0;"/><line style="stroke:#181818;stroke-width:1.0;" x1="455.5" x2="658.5" y1="357.4922" y2="357.4922"/><text fill="#000000" font-family="sans-serif" font-size="13" font-weight="bold" lengthAdjust="spacing" textLength="190" x="465" y="352.4263">createEncryptor(key, cfg)</text><path d="M444,370.4922 L444,410.4922 L895,410.4922 L895,380.4922 L885,370.4922 L444,370.4922 " fill="#FEFFDD" style="stroke:#181818;stroke-width:0.5;"/><path d="M885,370.4922 L885,380.4922 L895,380.4922 L885,370.4922 " fill="#FEFFDD" style="stroke:#181818;stroke-width:0.5;"/><text fill="#000000" font-family="sans-serif" font-size="13" lengthAdjust="spacing" textLength="188" x="450" y="387.5591">&#30452;&#25509;&#35843;&#29992; AES.createEncryptor</text><text fill="#000000" font-family="sans-serif" font-size="13" lengthAdjust="spacing" textLength="430" x="450" y="402.6919">(&#30001;&#20110; AES &#26410;&#23450;&#20041;&#35813;&#26041;&#27861;&#65292;&#23454;&#38469;&#25191;&#34892; Cipher.prototype.createEncryptor)</text><polygon fill="#181818" points="926.5,432.8906,936.5,436.8906,926.5,440.8906" style="stroke:#181818;stroke-width:1.0;"/><line style="stroke:#181818;stroke-width:1.0;" x1="674.5" x2="932.5" y1="436.8906" y2="436.8906"/><text fill="#000000" font-family="sans-serif" font-size="13" font-weight="bold" lengthAdjust="spacing" textLength="245" x="684" y="431.8247">this.create(xformMode, key, cfg)</text><line style="stroke:#181818;stroke-width:1.0;" x1="948.5" x2="990.5" y1="466.0234" y2="466.0234"/><line style="stroke:#181818;stroke-width:1.0;" x1="990.5" x2="990.5" y1="466.0234" y2="479.0234"/><line style="stroke:#181818;stroke-width:1.0;" x1="949.5" x2="990.5" y1="479.0234" y2="479.0234"/><polygon fill="#181818" points="959.5,475.0234,949.5,479.0234,959.5,483.0234" style="stroke:#181818;stroke-width:1.0;"/><text fill="#000000" font-family="sans-serif" font-size="13" lengthAdjust="spacing" textLength="54" x="955.5" y="460.9575">extend()</text><path d="M1021,453.3906 L1021,478.3906 L1298,478.3906 L1298,463.3906 L1288,453.3906 L1021,453.3906 " fill="#FEFFDD" style="stroke:#181818;stroke-width:0.5;"/><path d="M1288,453.3906 L1288,463.3906 L1298,463.3906 L1288,453.3906 " fill="#FEFFDD" style="stroke:#181818;stroke-width:0.5;"/><text fill="#000000" font-family="sans-serif" font-size="13" lengthAdjust="spacing" textLength="256" x="1027" y="470.4575">&#27492;&#26102; instance &#34987;&#21019;&#24314;&#65292;&#21407;&#22411;&#25351;&#21521; AESClass</text><polygon fill="#181818" points="1205.5,504.1563,1215.5,508.1563,1205.5,512.1563" style="stroke:#181818;stroke-width:1.0;"/><line style="stroke:#181818;stroke-width:1.0;" x1="948.5" x2="1211.5" y1="508.1563" y2="508.1563"/><text fill="#000000" font-family="sans-serif" font-size="13" font-weight="bold" lengthAdjust="spacing" textLength="233" x="966.5" y="503.0903">init.apply(instance, arguments)</text><path d="M1232,521.1563 L1232,561.1563 L1446,561.1563 L1446,531.1563 L1436,521.1563 L1232,521.1563 " fill="#FEFFDD" style="stroke:#181818;stroke-width:0.5;"/><path d="M1436,521.1563 L1436,531.1563 L1446,531.1563 L1436,521.1563 " fill="#FEFFDD" style="stroke:#181818;stroke-width:0.5;"/><text fill="#000000" font-family="sans-serif" font-size="13" lengthAdjust="spacing" textLength="193" x="1238" y="538.2231">&#35302;&#21457; core.js &#33258;&#21160;&#29983;&#25104;&#30340;&#36339;&#26495;&#20989;&#25968;</text><text fill="#000000" font-family="sans-serif" font-size="13" lengthAdjust="spacing" textLength="167" x="1238" y="553.356">(subtype.init -&gt; super.init)</text><line style="stroke:#181818;stroke-width:1.0;" x1="1227.5" x2="1269.5" y1="587.5547" y2="587.5547"/><line style="stroke:#181818;stroke-width:1.0;" x1="1269.5" x2="1269.5" y1="587.5547" y2="600.5547"/><line style="stroke:#181818;stroke-width:1.0;" x1="1228.5" x2="1269.5" y1="600.5547" y2="600.5547"/><polygon fill="#181818" points="1238.5,596.5547,1228.5,600.5547,1238.5,604.5547" style="stroke:#181818;stroke-width:1.0;"/><text fill="#000000" font-family="sans-serif" font-size="13" lengthAdjust="spacing" textLength="168" x="1234.5" y="582.4888">Cipher.init(mode, key, cfg)</text><path d="M1414,574.9219 L1414,599.9219 L1633,599.9219 L1633,584.9219 L1623,574.9219 L1414,574.9219 " fill="#FEFFDD" style="stroke:#181818;stroke-width:0.5;"/><path d="M1623,574.9219 L1623,584.9219 L1633,584.9219 L1623,574.9219 " fill="#FEFFDD" style="stroke:#181818;stroke-width:0.5;"/><text fill="#000000" font-family="sans-serif" font-size="13" lengthAdjust="spacing" textLength="198" x="1420" y="591.9888">&#32463;&#30001;&#36339;&#26495;&#20989;&#25968;&#26368;&#32456;&#25191;&#34892; Cipher.init</text><line style="stroke:#181818;stroke-width:1.0;" x1="1227.5" x2="1269.5" y1="629.6875" y2="629.6875"/><line style="stroke:#181818;stroke-width:1.0;" x1="1269.5" x2="1269.5" y1="629.6875" y2="642.6875"/><line style="stroke:#181818;stroke-width:1.0;" x1="1228.5" x2="1269.5" y1="642.6875" y2="642.6875"/><polygon fill="#181818" points="1238.5,638.6875,1228.5,642.6875,1238.5,646.6875" style="stroke:#181818;stroke-width:1.0;"/><text fill="#000000" font-family="sans-serif" font-size="13" lengthAdjust="spacing" textLength="70" x="1234.5" y="624.6216">this.reset()</text><path d="M1316,617.0547 L1316,642.0547 L1504,642.0547 L1504,627.0547 L1494,617.0547 L1316,617.0547 " fill="#FEFFDD" style="stroke:#181818;stroke-width:0.5;"/><path d="M1494,617.0547 L1494,627.0547 L1504,627.0547 L1494,617.0547 " fill="#FEFFDD" style="stroke:#181818;stroke-width:0.5;"/><text fill="#000000" font-family="sans-serif" font-size="13" lengthAdjust="spacing" textLength="167" x="1322" y="634.1216">Cipher.init &#20869;&#37096;&#35843;&#29992; reset()</text><polygon fill="#181818" points="959.5,670.8203,949.5,674.8203,959.5,678.8203" style="stroke:#181818;stroke-width:1.0;"/><line style="stroke:#181818;stroke-width:1.0;" x1="953.5" x2="1216.5" y1="674.8203" y2="674.8203"/><text fill="#000000" font-family="sans-serif" font-size="13" lengthAdjust="spacing" textLength="245" x="960.5" y="669.7544">BufferedBlockAlgorithm.reset.call(this)</text><path d="M1232,655.6875 L1232,680.6875 L1477,680.6875 L1477,665.6875 L1467,655.6875 L1232,655.6875 " fill="#FEFFDD" style="stroke:#181818;stroke-width:0.5;"/><path d="M1467,655.6875 L1467,665.6875 L1477,665.6875 L1467,655.6875 " fill="#FEFFDD" style="stroke:#181818;stroke-width:0.5;"/><text fill="#000000" font-family="sans-serif" font-size="13" lengthAdjust="spacing" textLength="224" x="1238" y="672.7544">&#26368;&#32456;&#36890;&#36807; reset &#21021;&#22987;&#21270; _data (Buffer)</text><polygon fill="#181818" points="959.5,702.9531,949.5,706.9531,959.5,710.9531" style="stroke:#181818;stroke-width:1.0;"/><line style="stroke:#181818;stroke-width:1.0;stroke-dasharray:2.0,2.0;" x1="953.5" x2="1221.5" y1="706.9531" y2="706.9531"/><text fill="#000000" font-family="sans-serif" font-size="13" lengthAdjust="spacing" textLength="18" x="1076.5" y="701.8872">OK</text><polygon fill="#181818" points="685.5,732.0859,675.5,736.0859,685.5,740.0859" style="stroke:#181818;stroke-width:1.0;"/><line style="stroke:#181818;stroke-width:1.0;stroke-dasharray:2.0,2.0;" x1="679.5" x2="942.5" y1="736.0859" y2="736.0859"/><text fill="#000000" font-family="sans-serif" font-size="13" lengthAdjust="spacing" textLength="121" x="748.5" y="731.02">&#36820;&#22238; encryptor &#23454;&#20363;</text><polygon fill="#181818" points="466.5,761.2188,456.5,765.2188,466.5,769.2188" style="stroke:#181818;stroke-width:1.0;"/><line style="stroke:#181818;stroke-width:1.0;stroke-dasharray:2.0,2.0;" x1="460.5" x2="668.5" y1="765.2188" y2="765.2188"/><text fill="#000000" font-family="sans-serif" font-size="13" lengthAdjust="spacing" textLength="91" x="517" y="760.1528">&#36820;&#22238; encryptor</text><polygon fill="#181818" points="1205.5,790.3516,1215.5,794.3516,1205.5,798.3516" style="stroke:#181818;stroke-width:1.0;"/><line style="stroke:#181818;stroke-width:1.0;" x1="455.5" x2="1211.5" y1="794.3516" y2="794.3516"/><text fill="#000000" font-family="sans-serif" font-size="13" lengthAdjust="spacing" textLength="82" x="795.5" y="789.2856">finalize(msg)</text><path d="M1136,807.3516 L1136,832.3516 L1308,832.3516 L1308,817.3516 L1298,807.3516 L1136,807.3516 " fill="#FEFFDD" style="stroke:#181818;stroke-width:0.5;"/><path d="M1298,807.3516 L1298,817.3516 L1308,817.3516 L1298,807.3516 " fill="#FEFFDD" style="stroke:#181818;stroke-width:0.5;"/><text fill="#000000" font-family="sans-serif" font-size="13" lengthAdjust="spacing" textLength="151" x="1142" y="824.4185">&#25191;&#34892; AES &#26680;&#24515;&#20301;&#36816;&#31639;&#36923;&#36753;</text><polygon fill="#181818" points="466.5,854.6172,456.5,858.6172,466.5,862.6172" style="stroke:#181818;stroke-width:1.0;"/><line style="stroke:#181818;stroke-width:1.0;stroke-dasharray:2.0,2.0;" x1="460.5" x2="1221.5" y1="858.6172" y2="858.6172"/><text fill="#000000" font-family="sans-serif" font-size="13" lengthAdjust="spacing" textLength="136" x="771" y="853.5513">&#36820;&#22238; WordArray (&#23494;&#25991;)</text><polygon fill="#181818" points="926.5,883.75,936.5,887.75,926.5,891.75" style="stroke:#181818;stroke-width:1.0;"/><line style="stroke:#181818;stroke-width:1.0;" x1="455.5" x2="932.5" y1="887.75" y2="887.75"/><text fill="#000000" font-family="sans-serif" font-size="13" lengthAdjust="spacing" textLength="173" x="610.5" y="882.6841">CipherParams.create({...})</text><path d="M953,900.75 L953,970.75 L1242,970.75 L1242,910.75 L1232,900.75 L953,900.75 " fill="#FEFFDD" style="stroke:#181818;stroke-width:0.5;"/><path d="M1232,900.75 L1232,910.75 L1242,910.75 L1232,900.75 " fill="#FEFFDD" style="stroke:#181818;stroke-width:0.5;"/><text fill="#000000" font-family="sans-serif" font-size="13" lengthAdjust="spacing" textLength="185" x="959" y="917.8169">1. CipherParams &#32487;&#25215;&#33258; Base</text><text fill="#000000" font-family="sans-serif" font-size="13" lengthAdjust="spacing" textLength="168" x="959" y="932.9497">2. create &#35843;&#29992; Base.create</text><text fill="#000000" font-family="sans-serif" font-size="13" lengthAdjust="spacing" textLength="268" x="959" y="948.0825">3. Base.create &#20869;&#37096;&#25191;&#34892; instance.init.apply</text><text fill="#000000" font-family="sans-serif" font-size="13" lengthAdjust="spacing" textLength="257" x="959" y="963.2153">(&#30452;&#25509;&#35843;&#29992; CipherParams.init&#65292;&#19981;&#32463;&#36807;&#36339;&#26495;)</text><line style="stroke:#181818;stroke-width:1.0;" x1="948.5" x2="990.5" y1="1001.4805" y2="1001.4805"/><line style="stroke:#181818;stroke-width:1.0;" x1="990.5" x2="990.5" y1="1001.4805" y2="1014.4805"/><line style="stroke:#181818;stroke-width:1.0;" x1="949.5" x2="990.5" y1="1014.4805" y2="1014.4805"/><polygon fill="#181818" points="959.5,1010.4805,949.5,1014.4805,959.5,1018.4805" style="stroke:#181818;stroke-width:1.0;"/><text fill="#000000" font-family="sans-serif" font-size="13" lengthAdjust="spacing" textLength="211" x="955.5" y="996.4146">CipherParams.init(cipherParams)</text><path d="M1178,981.2813 L1178,1021.2813 L1371,1021.2813 L1371,991.2813 L1361,981.2813 L1178,981.2813 " fill="#FEFFDD" style="stroke:#181818;stroke-width:0.5;"/><path d="M1361,981.2813 L1361,991.2813 L1371,991.2813 L1361,981.2813 " fill="#FEFFDD" style="stroke:#181818;stroke-width:0.5;"/><text fill="#000000" font-family="sans-serif" font-size="13" lengthAdjust="spacing" textLength="172" x="1184" y="998.3481">&#23558; ciphertext, key, iv &#31561;&#23646;&#24615;</text><text fill="#000000" font-family="sans-serif" font-size="13" lengthAdjust="spacing" textLength="130" x="1184" y="1013.481">&#20445;&#23384;&#21040;&#26032;&#21019;&#24314;&#30340;&#23454;&#20363;&#20013;</text><polygon fill="#181818" points="466.5,1043.6797,456.5,1047.6797,466.5,1051.6797" style="stroke:#181818;stroke-width:1.0;"/><line style="stroke:#181818;stroke-width:1.0;stroke-dasharray:2.0,2.0;" x1="460.5" x2="942.5" y1="1047.6797" y2="1047.6797"/><text fill="#000000" font-family="sans-serif" font-size="13" lengthAdjust="spacing" textLength="148" x="625.5" y="1042.6138">&#36820;&#22238; cipherParams &#23454;&#20363;</text><polygon fill="#181818" points="226.5,1072.8125,216.5,1076.8125,226.5,1080.8125" style="stroke:#181818;stroke-width:1.0;"/><line style="stroke:#181818;stroke-width:1.0;stroke-dasharray:2.0,2.0;" x1="220.5" x2="449.5" y1="1076.8125" y2="1076.8125"/><text fill="#000000" font-family="sans-serif" font-size="13" lengthAdjust="spacing" textLength="148" x="259" y="1071.7466">&#36820;&#22238; cipherParams &#23454;&#20363;</text><polygon fill="#181818" points="54.5,1101.9453,44.5,1105.9453,54.5,1109.9453" style="stroke:#181818;stroke-width:1.0;"/><line style="stroke:#181818;stroke-width:1.0;stroke-dasharray:2.0,2.0;" x1="48.5" x2="209.5" y1="1105.9453" y2="1105.9453"/><text fill="#000000" font-family="sans-serif" font-size="13" lengthAdjust="spacing" textLength="78" x="88" y="1100.8794">&#36820;&#22238;&#23494;&#25991;&#23545;&#35937;</text></g></svg>